ffmpeg started on 2016-11-29 at 23:17:38
Report written to "Output/x264/results/ffmpeg/old_town_cross_2160p50veryfast14000k.log"
Command line:
Tools/ffmpeg/ffmpeg -benchmark -y -i Input/y4m/old_town_cross_2160p50.y4m -c:v libx264 -preset veryfast -b:v 14000k -an Output/x264/encoded/old_town_cross_2160p50veryfast14000k.mkv
ffmpeg version N-82227-gdb23fde Copyright (c) 2000-2016 the FFmpeg developers
  built with gcc 5.4.0 (Ubuntu 5.4.0-6ubuntu1~16.04.2) 20160609
  configuration: --prefix=/home/jaroslav/ffmpeg_build --pkg-config-flags=--static --extra-cflags=-I/home/jaroslav/ffmpeg_build/include --extra-ldflags=-L/home/jaroslav/ffmpeg_build/lib --bindir=/home/jaroslav/bin --enable-gpl --enable-libass --enable-libfdk-aac --enable-libfreetype --enable-libmp3lame --enable-libopus --enable-libtheora --enable-libvorbis --enable-libvpx --enable-libx264 --enable-libx265 --enable-nvenc --enable-libmfx --enable-libxvid --enable-libgsm --enable-libopencore-amrnb --enable-version3 --enable-nonfree
  libavutil      55. 35.100 / 55. 35.100
  libavcodec     57. 66.101 / 57. 66.101
  libavformat    57. 57.100 / 57. 57.100
  libavdevice    57.  2.100 / 57.  2.100
  libavfilter     6. 66.100 /  6. 66.100
  libswscale      4.  3.100 /  4.  3.100
  libswresample   2.  4.100 /  2.  4.100
  libpostproc    54.  2.100 / 54.  2.100
Input #0, yuv4mpegpipe, from 'Input/y4m/old_town_cross_2160p50.y4m':
  Duration: 00:00:10.00, start: 0.000000, bitrate: 4976642 kb/s
    Stream #0:0: Video: rawvideo (I420 / 0x30323449), yuv420p(progressive), 3840x2160, SAR 1:1 DAR 16:9, 50 fps, 50 tbr, 50 tbn, 50 tbc
[libx264 @ 0x3a1b120] using SAR=1/1
[libx264 @ 0x3a1b120] using cpu capabilities: MMX2 SSE2Fast SSSE3 SSE4.2 AVX FMA3 AVX2 LZCNT BMI2
[libx264 @ 0x3a1b120] profile High, level 5.2
[libx264 @ 0x3a1b120] 264 - core 148 - H.264/MPEG-4 AVC codec - Copyleft 2003-2016 - http://www.videolan.org/x264.html - options: cabac=1 ref=1 deblock=1:0:0 analyse=0x3:0x113 me=hex subme=2 psy=1 psy_rd=1.00:0.00 mixed_ref=0 me_range=16 chroma_me=1 trellis=0 8x8dct=1 cqm=0 deadzone=21,11 fast_pskip=1 chroma_qp_offset=0 threads=6 lookahead_threads=2 sliced_threads=0 nr=0 decimate=1 interlaced=0 bluray_compat=0 constrained_intra=0 bframes=3 b_pyramid=2 b_adapt=1 b_bias=0 direct=1 weightb=1 open_gop=0 weightp=1 keyint=250 keyint_min=25 scenecut=40 intra_refresh=0 rc_lookahead=10 rc=abr mbtree=1 bitrate=14000 ratetol=1.0 qcomp=0.60 qpmin=0 qpmax=69 qpstep=4 ip_ratio=1.40 aq=1:1.00
Output #0, matroska, to 'Output/x264/encoded/old_town_cross_2160p50veryfast14000k.mkv':
  Metadata:
    encoder         : Lavf57.57.100
    Stream #0:0: Video: h264 (libx264) (H264 / 0x34363248), yuv420p, 3840x2160 [SAR 1:1 DAR 16:9], q=-1--1, 14000 kb/s, 50 fps, 1k tbn, 50 tbc
    Metadata:
      encoder         : Lavc57.66.101 libx264
    Side data:
      cpb: bitrate max/min/avg: 0/0/14000000 buffer size: 0 vbv_delay: -1
Stream mapping:
  Stream #0:0 -> #0:0 (rawvideo (native) -> h264 (libx264))
Press [q] to stop, [?] for help
frame=   22 fps=0.0 q=31.0 size=       1kB time=-00:00:00.01 bitrate=N/A speed=N/A    frame=   35 fps= 31 q=47.0 size=       1kB time=00:00:00.24 bitrate=  24.3kbits/s speed=0.216x    frame=   50 fps= 30 q=39.0 size=       1kB time=00:00:00.54 bitrate=  10.8kbits/s speed=0.328x    frame=   66 fps= 30 q=35.0 size=       1kB time=00:00:00.86 bitrate=   6.8kbits/s speed=0.391x    frame=   82 fps= 30 q=33.0 size=       1kB time=00:00:01.18 bitrate=   5.0kbits/s speed=0.427x    frame=   98 fps= 30 q=32.0 size=       1kB time=00:00:01.50 bitrate=   3.9kbits/s speed=0.455x    frame=  114 fps= 30 q=32.0 size=       1kB time=00:00:01.82 bitrate=   3.2kbits/s speed=0.473x    frame=  128 fps= 29 q=32.0 size=       1kB time=00:00:02.10 bitrate=   2.8kbits/s speed=0.48x    frame=  143 fps= 29 q=32.0 size=       1kB time=00:00:02.40 bitrate=   2.4kbits/s speed=0.492x    frame=  158 fps= 29 q=32.0 size=       1kB time=00:00:02.70 bitrate=   2.2kbits/s speed=0.499x    frame=  174 fps= 29 q=32.0 size=    5132kB time=00:00:03.02 bitrate=13915.5kbits/s speed=0.502x    frame=  190 fps= 29 q=32.0 size=    5132kB time=00:00:03.34 bitrate=12582.7kbits/s speed=0.507x    frame=  204 fps= 29 q=32.0 size=    5132kB time=00:00:03.62 bitrate=11609.7kbits/s speed=0.509x    frame=  221 fps= 29 q=32.0 size=    5132kB time=00:00:03.96 bitrate=10613.2kbits/s speed=0.519x    frame=  232 fps= 28 q=32.0 size=    5132kB time=00:00:04.18 bitrate=10054.7kbits/s speed=0.508x    frame=  239 fps= 27 q=32.0 size=    5132kB time=00:00:04.32 bitrate=9729.0kbits/s speed=0.493x    frame=  247 fps= 27 q=33.0 size=    5132kB time=00:00:04.48 bitrate=9381.6kbits/s speed=0.483x    frame=  255 fps= 26 q=33.0 size=    5132kB time=00:00:04.64 bitrate=9058.1kbits/s speed=0.474x    frame=  263 fps= 26 q=33.0 size=    5132kB time=00:00:04.80 bitrate=8756.3kbits/s speed=0.466x    frame=  276 fps= 26 q=34.0 size=    8853kB time=00:00:05.06 bitrate=14329.7kbits/s speed=0.468x    frame=  291 fps= 26 q=33.0 size=    8853kB time=00:00:05.36 bitrate=13527.8kbits/s speed=0.473x    frame=  307 fps= 26 q=33.0 size=    8853kB time=00:00:05.68 bitrate=12765.8kbits/s speed=0.477x    frame=  323 fps= 26 q=33.0 size=    8853kB time=00:00:06.00 bitrate=12085.0kbits/s speed=0.482x    frame=  339 fps= 26 q=32.0 size=    8853kB time=00:00:06.32 bitrate=11473.2kbits/s speed=0.487x    frame=  355 fps= 26 q=32.0 size=    8853kB time=00:00:06.64 bitrate=10920.4kbits/s speed=0.489x    frame=  371 fps= 26 q=32.0 size=    8853kB time=00:00:06.96 bitrate=10418.4kbits/s speed=0.491x    frame=  386 fps= 26 q=32.0 size=    8853kB time=00:00:07.26 bitrate=9987.9kbits/s speed=0.495x    frame=  402 fps= 26 q=32.0 size=    8853kB time=00:00:07.58 bitrate=9566.3kbits/s speed=0.498x    frame=  415 fps= 26 q=32.0 size=    8853kB time=00:00:07.84 bitrate=9249.1kbits/s speed=0.498x    frame=  429 fps= 26 q=32.0 size=    8853kB time=00:00:08.12 bitrate=8930.2kbits/s speed= 0.5x    frame=  443 fps= 26 q=32.0 size=   13996kB time=00:00:08.40 bitrate=13647.8kbits/s speed=0.501x    frame=  459 fps= 26 q=32.0 size=   13996kB time=00:00:08.72 bitrate=13147.0kbits/s speed=0.503x    frame=  473 fps= 26 q=32.0 size=   13996kB time=00:00:09.00 bitrate=12738.1kbits/s speed= 0.5x    frame=  480 fps= 26 q=32.0 size=   13996kB time=00:00:09.14 bitrate=12543.0kbits/s speed=0.493x    frame=  488 fps= 26 q=33.0 size=   13996kB time=00:00:09.30 bitrate=12327.2kbits/s speed=0.488x    frame=  496 fps= 25 q=33.0 size=   13996kB time=00:00:09.46 bitrate=12118.7kbits/s speed=0.484x    frame=  500 fps= 24 q=-1.0 Lsize=   17925kB time=00:00:09.94 bitrate=14771.0kbits/s speed=0.486x    
video:17920kB audio:0kB subtitle:0kB other streams:0kB global headers:0kB muxing overhead: 0.025640%
bench: utime=71.080s
bench: maxrss=1090660kB
[libx264 @ 0x3a1b120] frame I:3     Avg QP:28.11  size:608709
[libx264 @ 0x3a1b120] frame P:183   Avg QP:31.11  size: 60925
[libx264 @ 0x3a1b120] frame B:314   Avg QP:32.54  size: 17114
[libx264 @ 0x3a1b120] consecutive B-frames: 16.0%  0.8%  0.0% 83.2%
[libx264 @ 0x3a1b120] mb I  I16..4: 25.3% 54.9% 19.8%
[libx264 @ 0x3a1b120] mb P  I16..4:  4.8%  3.1%  0.0%  P16..4: 26.1%  6.9%  1.9%  0.0%  0.0%    skip:57.3%
[libx264 @ 0x3a1b120] mb B  I16..4:  1.3%  0.6%  0.0%  B16..8:  9.3%  1.0%  0.0%  direct: 5.2%  skip:82.5%  L0:38.2% L1:56.9% BI: 5.0%
[libx264 @ 0x3a1b120] final ratefactor: 24.78
[libx264 @ 0x3a1b120] 8x8 transform intra:39.4% inter:43.2%
[libx264 @ 0x3a1b120] coded y,uvDC,uvAC intra: 61.0% 48.4% 32.7% inter: 4.1% 3.4% 0.0%
[libx264 @ 0x3a1b120] i16 v,h,dc,p: 26% 23% 42%  9%
[libx264 @ 0x3a1b120] i8 v,h,dc,ddl,ddr,vr,hd,vl,hu:  8% 11% 61%  4%  3%  3%  4%  3%  4%
[libx264 @ 0x3a1b120] i4 v,h,dc,ddl,ddr,vr,hd,vl,hu: 15% 24% 12%  7%  7%  7% 11%  7% 10%
[libx264 @ 0x3a1b120] i8c dc,h,v,p: 73% 13% 13%  1%
[libx264 @ 0x3a1b120] Weighted P-Frames: Y:0.5% UV:0.0%
[libx264 @ 0x3a1b120] kb/s:14679.50
